<svg version="1.1" x="0px" y="0px" width="570" height="216" xmlns="http://www.w3.org/2000/svg" xmlns:xlink="http://www.w3.org/1999/xlink" xmlns:a="http://ns.adobe.com/AdobeSVGViewerExtensions/3.0/" xml:space="preserve"><g transform="translate(20 20.208908081055) scale(1.9024183962875 1.9024179030479) rotate(0 48.62232208252 46.0419921875)"><path d="M59.511,10.374c0.955-1.174,1.646-2.784,1.656-4.542c0.01-1.757-0.732-3.335-2.095-4.451
	c-0.677-0.526-1.502-0.947-2.42-1.179c-0.915-0.207-1.931-0.286-2.952-0.087c-1.027,0.164-1.959,0.572-2.748,1.085
	c-0.789,0.522-1.422,1.208-1.881,1.932c-0.905,1.512-1.064,3.248-0.453,4.9c0.608,1.644,1.808,2.924,3.1,3.705
	c1.32,0.821,2.74,1.151,4.175,0.921c0.714-0.145,1.379-0.378,1.981-0.788C58.479,11.487,59.032,10.991,59.511,10.374z
	 M40.236,12.421c-0.437-0.622-0.98-1.124-1.608-1.486c-0.628-0.367-1.339-0.59-2.076-0.637c-0.739-0.05-1.535,0.037-2.279,0.328
	c-0.376,0.14-0.75,0.318-1.111,0.535c-0.355,0.225-0.69,0.496-1.011,0.798c-1.282,1.214-1.896,2.841-1.85,4.322
	c0.049,1.498,0.76,2.854,1.965,3.773c1.214,0.926,2.663,1.284,3.995,1.243c1.349-0.042,2.569-0.496,3.513-1.384
	c0.237-0.222,0.436-0.473,0.614-0.734c0.184-0.254,0.338-0.528,0.463-0.823c0.243-0.596,0.412-1.215,0.457-1.89
	c0.043-0.676-0.005-1.368-0.174-2.054C40.965,13.727,40.674,13.044,40.236,12.421z M22.265,34.044
	c0.659,1.096,1.727,1.828,3.006,2.04c1.282,0.212,2.53-0.097,3.503-0.685c0.506-0.292,0.945-0.655,1.287-1.081
	c0.346-0.428,0.639-0.905,0.789-1.452c0.166-0.542,0.229-1.088,0.16-1.645c-0.052-0.548-0.196-1.09-0.449-1.613
	c-0.502-1.043-1.333-1.989-2.52-2.535c-1.17-0.541-2.493-0.545-3.628,0.001c-0.563,0.274-1.103,0.671-1.544,1.186
	c-0.425,0.518-0.791,1.14-1.007,1.846c-0.2,0.71-0.283,1.42-0.201,2.093C21.746,32.875,21.953,33.502,22.265,34.044z M28.417,49.37
	c0.143-0.205,0.262-0.419,0.363-0.642c0.11-0.223,0.198-0.453,0.261-0.687c0.132-0.472,0.14-0.954,0.091-1.454
	c-0.056-0.499-0.248-0.957-0.483-1.375c-0.236-0.419-0.563-0.796-0.957-1.115c-0.779-0.638-1.786-1.06-2.917-1.035
	c-1.116,0.023-2.145,0.52-2.83,1.36c-0.338,0.419-0.6,0.922-0.765,1.479c-0.166,0.558-0.187,1.166-0.113,1.79
	c0.066,0.623,0.304,1.194,0.595,1.69c0.147,0.248,0.316,0.476,0.501,0.681c0.194,0.206,0.408,0.386,0.631,0.541
	c0.898,0.624,1.991,0.831,3.078,0.553C26.961,50.876,27.85,50.189,28.417,49.37z M32.318,58.26c-0.219-0.363-0.481-0.681-0.8-0.935
	c-0.318-0.253-0.698-0.44-1.097-0.568c-0.783-0.258-1.706-0.255-2.557,0.121c-0.851,0.375-1.463,1.069-1.745,1.93
	c-0.135,0.425-0.172,0.884-0.125,1.354c0.047,0.472,0.184,0.952,0.444,1.393c0.256,0.441,0.575,0.822,0.949,1.109
	c0.382,0.282,0.802,0.482,1.234,0.593c0.857,0.224,1.786,0.054,2.548-0.476c0.768-0.531,1.234-1.305,1.446-2.123
	c0.103-0.409,0.129-0.824,0.076-1.225C32.643,59.027,32.531,58.627,32.318,58.26z M36.29,65.938
	c-0.696,0.002-1.425,0.251-1.995,0.771c-0.571,0.521-0.866,1.226-0.861,1.967c-0.005,0.746,0.322,1.497,0.93,2.072
	c0.602,0.583,1.404,0.825,2.127,0.796c0.733-0.039,1.432-0.397,1.911-0.999c0.485-0.606,0.669-1.334,0.63-2.033
	c-0.031-0.713-0.333-1.348-0.845-1.849C37.667,66.17,36.979,65.945,36.29,65.938z M45.077,72.044
	c-0.559-0.297-1.18-0.358-1.779-0.186c-0.596,0.169-1.14,0.525-1.503,1.101c-0.355,0.568-0.455,1.253-0.277,1.863
	c0.177,0.607,0.604,1.188,1.244,1.53c0.647,0.329,1.35,0.398,1.964,0.193c0.615-0.207,1.123-0.647,1.399-1.264
	c0.278-0.615,0.283-1.283,0.089-1.857C46.018,72.85,45.641,72.33,45.077,72.044z M52.114,75.189
	c-0.533-0.155-1.084-0.057-1.554,0.197c-0.467,0.247-0.858,0.674-1.046,1.23c-0.188,0.555-0.127,1.136,0.139,1.633
	c0.266,0.488,0.747,0.865,1.347,1.038c0.599,0.182,1.217,0.052,1.69-0.224c0.478-0.281,0.823-0.747,0.941-1.321
	C53.862,76.583,53.174,75.474,52.114,75.189z M59.013,76.318c-0.554-0.045-1.073,0.154-1.482,0.509
	c-0.406,0.342-0.703,0.834-0.773,1.418c-0.069,0.581,0.107,1.144,0.471,1.571c0.36,0.414,0.906,0.696,1.53,0.742
	c1.257,0.063,2.271-0.881,2.262-2.048C61.011,77.332,60.109,76.372,59.013,76.318z" fill="#06a79c"></path><path d="M81.6,20.582c-0.148-0.614-0.432-1.238-0.856-1.797c-0.434-0.542-0.984-1.055-1.666-1.41
	c-0.67-0.381-1.396-0.572-2.089-0.641c-0.698-0.06-1.379,0.043-1.978,0.25c-1.221,0.457-2.113,1.387-2.521,2.624
	c-0.406,1.23-0.303,2.524,0.086,3.571c0.384,1.084,1.053,1.931,1.988,2.457c0.479,0.246,0.972,0.416,1.508,0.458
	c0.528,0.059,1.075,0.026,1.638-0.112c1.092-0.236,2.233-0.849,3.05-1.86S81.872,21.854,81.6,20.582z M64.47,15.357
	c-0.404-0.369-0.904-0.686-1.469-0.861c-0.283-0.092-0.58-0.16-0.89-0.202c-0.309-0.035-0.627-0.031-0.952-0.004
	c-1.301,0.109-2.406,0.767-3.063,1.645c-0.661,0.891-0.875,2.002-0.603,3.088c0.274,1.095,0.947,1.972,1.736,2.561
	c0.8,0.598,1.714,0.898,2.669,0.819c0.24-0.021,0.471-0.073,0.693-0.142c0.225-0.062,0.439-0.15,0.646-0.262
	c0.416-0.231,0.799-0.513,1.136-0.881c0.337-0.373,0.628-0.795,0.847-1.27c0.218-0.476,0.365-1.003,0.399-1.565
	c0.034-0.561-0.049-1.102-0.245-1.601C65.181,16.181,64.874,15.725,64.47,15.357z M49.718,19.462
	c-0.451-0.102-0.946-0.12-1.438-0.027c-0.485,0.104-0.983,0.294-1.434,0.604c-0.443,0.318-0.818,0.69-1.081,1.117
	c-0.262,0.43-0.432,0.889-0.501,1.346c-0.124,0.937,0.155,1.854,0.797,2.566c0.644,0.712,1.508,1.109,2.341,1.218
	c0.427,0.064,0.849,0.057,1.244-0.032c0.396-0.087,0.785-0.229,1.124-0.476c0.346-0.236,0.635-0.524,0.851-0.876
	c0.223-0.341,0.39-0.721,0.484-1.143c0.191-0.833,0.146-1.762-0.287-2.626C51.389,20.281,50.626,19.669,49.718,19.462z
	 M42.559,28.872c-0.656-0.501-1.479-0.688-2.264-0.518c-0.389,0.087-0.772,0.258-1.124,0.503c-0.353,0.246-0.645,0.588-0.89,0.981
	c-0.25,0.392-0.375,0.833-0.436,1.253c-0.028,0.212-0.036,0.421-0.024,0.625c0.019,0.206,0.059,0.41,0.116,0.602
	c0.231,0.776,0.767,1.399,1.525,1.739c0.758,0.341,1.587,0.353,2.293,0.141c0.177-0.054,0.345-0.122,0.505-0.204
	c0.166-0.078,0.323-0.172,0.469-0.276c0.293-0.212,0.519-0.488,0.722-0.8c0.198-0.313,0.298-0.666,0.354-1.019
	c0.057-0.35,0.041-0.719-0.039-1.084C43.61,30.087,43.224,29.379,42.559,28.872z M37.166,43.222
	c0.688,0.045,1.315-0.188,1.816-0.563c0.246-0.189,0.454-0.416,0.607-0.673c0.159-0.257,0.281-0.541,0.326-0.852
	c0.042-0.311,0.035-0.614-0.032-0.908c-0.067-0.293-0.201-0.575-0.372-0.834c-0.333-0.512-0.869-0.935-1.534-1.11
	c-0.666-0.175-1.339-0.055-1.898,0.313c-0.275,0.186-0.508,0.433-0.697,0.726c-0.19,0.294-0.333,0.635-0.384,1.01
	c-0.056,0.374-0.047,0.739,0.037,1.078c0.09,0.341,0.241,0.649,0.44,0.912C35.865,42.844,36.481,43.174,37.166,43.222z
	 M39.071,50.156c0.31-0.426,0.428-0.933,0.363-1.457c-0.073-0.525-0.367-0.972-0.762-1.294c-0.403-0.319-0.939-0.513-1.509-0.474
	c-0.569,0.039-1.065,0.309-1.404,0.739c-0.347,0.429-0.503,1.013-0.417,1.627c0.079,0.614,0.431,1.123,0.863,1.438
	c0.442,0.317,1.011,0.431,1.564,0.307C38.329,50.914,38.771,50.58,39.071,50.156z M40.936,54.986
	c-0.185-0.429-0.516-0.753-0.941-0.928c-0.423-0.177-0.902-0.223-1.376-0.056c-0.468,0.163-0.84,0.513-1.019,0.948
	c-0.178,0.433-0.2,0.967,0.013,1.459c0.222,0.487,0.597,0.854,1.046,1.017c0.45,0.165,0.947,0.144,1.391-0.085
	c0.444-0.227,0.755-0.612,0.908-1.033C41.109,55.885,41.132,55.41,40.936,54.986z M42.567,59.444
	c-0.383-0.071-0.807-0.005-1.172,0.23c-0.364,0.233-0.598,0.6-0.673,1.008c-0.07,0.406,0.034,0.846,0.3,1.223
	c0.263,0.38,0.68,0.59,1.081,0.649c0.406,0.056,0.82-0.054,1.154-0.33c0.667-0.564,0.78-1.524,0.299-2.177
	C43.32,59.712,42.956,59.515,42.567,59.444z M45.933,63.49c-0.393,0.012-0.791,0.159-1.101,0.464
	c-0.308,0.305-0.466,0.711-0.453,1.125c0.019,0.406,0.204,0.82,0.542,1.136c0.698,0.617,1.72,0.537,2.251-0.143
	c0.538-0.686,0.459-1.655-0.15-2.192C46.724,63.6,46.332,63.476,45.933,63.49z" fill="#8ebe44"></path><path d="M9.195,24.284c2.288,0.676,4.66,0.41,6.564-0.366c1.971-0.77,3.488-2.05,4.404-3.801
	c0.422-0.896,0.709-1.813,0.754-2.802c0.075-0.972-0.015-1.979-0.301-3.005c-0.5-1.994-1.694-4.059-3.604-5.501
	c-1.908-1.442-4.232-1.918-6.56-1.342C9.33,7.778,8.198,8.336,7.198,9.148c-0.971,0.83-1.883,1.873-2.497,3.148
	c-0.659,1.253-0.971,2.602-1.056,3.88c-0.071,1.285,0.16,2.534,0.574,3.622C5.133,22.017,6.895,23.604,9.195,24.284z M13.601,48.558
	c1.052-1.504,1.551-3.205,1.351-4.956c-0.05-0.439-0.161-0.86-0.302-1.267c-0.127-0.409-0.302-0.802-0.52-1.177
	c-0.451-0.75-0.988-1.437-1.687-2.036c-0.703-0.598-1.499-1.108-2.381-1.482c-0.889-0.375-1.868-0.612-2.903-0.643
	c-1.035-0.031-2.025,0.154-2.933,0.542c-0.911,0.388-1.732,0.981-2.383,1.746c-0.656,0.765-1.209,1.704-1.499,2.753
	c-0.154,0.523-0.262,1.076-0.32,1.647c-0.046,0.568-0.022,1.156,0.047,1.75c0.277,2.387,1.553,4.382,3.207,5.537
	c1.673,1.167,3.731,1.495,5.714,0.93C10.99,51.334,12.562,50.044,13.601,48.558z M21.809,63.88
	c-0.456-0.625-1.002-1.139-1.662-1.515c-0.639-0.39-1.349-0.674-2.127-0.826c-1.545-0.302-3.252-0.165-4.816,0.686
	c-1.541,0.835-2.623,2.273-2.951,3.957c-0.161,0.835-0.166,1.748,0.033,2.648c0.22,0.887,0.6,1.791,1.193,2.602
	c0.612,0.797,1.317,1.464,2.119,1.923c0.807,0.458,1.66,0.742,2.505,0.843c1.73,0.174,3.398-0.394,4.671-1.615
	c1.276-1.225,1.954-2.837,2.106-4.378c0.094-0.788,0.054-1.564-0.132-2.285C22.566,65.194,22.284,64.487,21.809,63.88z
	 M37.421,79.05c-0.154-0.302-0.334-0.584-0.538-0.845c-0.406-0.526-0.926-0.928-1.511-1.282c-0.589-0.345-1.244-0.509-1.893-0.594
	c-0.65-0.083-1.326-0.033-1.996,0.136c-1.328,0.332-2.608,1.084-3.501,2.337c-0.883,1.237-1.18,2.762-0.821,4.194
	c0.181,0.711,0.517,1.404,0.99,2.037c0.473,0.635,1.118,1.151,1.857,1.581c0.735,0.437,1.552,0.643,2.33,0.729
	c0.391,0.038,0.777,0.041,1.152,0.006c0.38-0.044,0.75-0.132,1.102-0.248c1.413-0.471,2.527-1.492,3.108-2.907
	c0.582-1.414,0.556-2.939,0.125-4.227C37.716,79.646,37.58,79.34,37.421,79.05z M52.276,83.501c-0.48-0.278-1.009-0.483-1.583-0.55
	c-0.575-0.058-1.133-0.029-1.669,0.111c-0.535,0.142-1.049,0.403-1.512,0.734c-0.92,0.645-1.669,1.652-1.953,2.885
	c-0.284,1.234-0.023,2.468,0.685,3.475c0.355,0.493,0.824,0.907,1.375,1.239c0.552,0.333,1.188,0.576,1.879,0.648
	c0.691,0.081,1.365,0.044,1.982-0.129c0.619-0.187,1.181-0.482,1.65-0.864c0.942-0.752,1.514-1.902,1.559-3.165
	c0.044-1.271-0.418-2.408-1.14-3.307C53.188,84.136,52.758,83.769,52.276,83.501z M67.338,83.978
	c-0.804-0.546-1.741-0.735-2.704-0.583c-0.961,0.163-1.765,0.733-2.335,1.478c-0.564,0.761-0.887,1.758-0.783,2.804
	c0.104,1.045,0.632,1.94,1.443,2.538c0.81,0.614,1.894,0.868,3.017,0.675c1.127-0.182,2.042-0.859,2.599-1.672
	c0.556-0.833,0.733-1.887,0.468-2.896C68.774,85.297,68.134,84.505,67.338,83.978z M78.544,80.145
	c-0.787-0.254-1.661-0.265-2.43,0.119c-0.779,0.365-1.354,0.993-1.654,1.785c-0.299,0.788-0.353,1.671-0.021,2.536
	c0.327,0.852,0.992,1.516,1.804,1.818c0.807,0.303,1.789,0.312,2.683-0.109c0.885-0.438,1.534-1.147,1.809-1.984
	c0.276-0.839,0.209-1.752-0.236-2.554C80.053,80.951,79.327,80.399,78.544,80.145z M85.271,75.149
	c-0.604,0.454-0.944,1.135-1.051,1.854c-0.109,0.709,0.037,1.484,0.491,2.142c0.453,0.657,1.137,1.065,1.894,1.179
	c0.75,0.107,1.553-0.109,2.23-0.624c0.687-0.504,1.047-1.284,1.134-2.024c0.079-0.752-0.146-1.506-0.677-2.103
	C88.215,74.377,86.443,74.225,85.271,75.149z M96.144,68.143c-1.293-0.95-3.072-0.748-4.025,0.403
	c-0.498,0.567-0.704,1.295-0.652,2.03c0.043,0.722,0.339,1.445,0.918,1.997c0.576,0.548,1.335,0.814,2.095,0.767
	c0.746-0.057,1.497-0.422,2.058-1.063C97.63,70.956,97.425,69.082,96.144,68.143z" fill="#1f75b6"></path></g>
<g transform="translate(122 125.59501928793)  scale(0.74384920519162 0.74384920519162)"><text dominant-baseline="auto" alignment-baseline="auto" font-family="Kayak Sans" font-size="62px" fill="#1b75bb" letter-spacing="0" xml:space="preserve">VIRTUOSO SOFTTECH</text></g>
<g transform="translate(224 157.23749203621)  scale(0.87082234883919 0.87082234883919)"><text dominant-baseline="auto" alignment-baseline="auto" font-family="Kayak Sans" font-size="34px" fill="#06a79c" letter-spacing="2" xml:space="preserve">Delivering Excellence</text></g>
<g transform="translate(229.6875 182.93751775121)  scale(0.49979675593689 0.49979675593689)"><text dominant-baseline="auto" alignment-baseline="auto" font-family="Kayak Sans" font-size="34px" fill="#8ebe44" letter-spacing="0" xml:space="preserve">An IT Services division of VPEL</text></g>
</svg>